<svg width="540" height="623" viewBox="0 0 540 623" fill="none" xmlns="http://www.w3.org/2000/svg">
<path fill-rule="evenodd" clip-rule="evenodd" d="M419.785 267.455C416.132 257.873 411.482 249.194 405.834 241.416L473.329 173.921C487.258 190.38 498.541 209.256 507.179 230.548C518.393 257.345 524 286.578 524 318.247V403.753C524 435.666 518.393 465.02 507.179 491.817C496.209 518.614 480.973 541.757 461.471 561.245C441.969 580.49 418.81 595.594 391.994 606.556C365.179 617.519 336.047 623 304.6 623H75.5859L170.285 528.301L169.976 527.993H304.6C323.127 527.993 339.948 525.07 355.062 519.223C370.42 513.133 383.584 504.728 394.554 494.01C405.524 483.047 413.934 470.014 419.785 454.911C425.879 439.563 428.927 422.511 428.927 403.753V318.247C428.927 299.733 425.879 282.802 419.785 267.455ZM95.0733 491.827V194.007H164.744L259.751 99H47.9023C41.0765 99 34.7383 100.218 28.8876 102.654C23.037 105.09 17.9177 108.501 13.5297 112.886C9.38544 117.271 6.09444 122.386 3.65666 128.233C1.21889 134.079 0 140.291 0 146.869V575.131C0 578.838 0.360006 582.401 1.08002 585.82L95.0733 491.827Z" fill="#FF4C4B"/>
<path d="M197.217 191.937C210.169 188.239 217.316 173.816 231.14 172.258C232.717 171.995 234.288 171.799 235.882 171.535C236.626 171.406 236.693 171.278 236.318 170.661C232.516 164.469 232.583 156.569 235.837 150.131C237.107 147.48 239.903 146.387 242.324 145.076C245.606 143.429 248.649 141.344 251.373 138.879C258.732 131.92 263.776 123.884 274.133 120.999L274.463 121.128L273.848 121.895C267.21 128.132 260.594 135.158 256.199 143.059C275.598 123.447 295.848 103.948 325.621 106.553C329.882 106.878 313.782 114.846 312.384 115.614C294.271 123.929 277.606 135.444 264.805 150.915C261.092 155.274 256.808 159.152 253.229 163.612C251.087 166.873 254.102 171.345 256.568 173.592C258.626 175.346 261.047 176.461 263.429 177.643C264.52 178.192 266.421 178.803 264.084 179.419C262.663 179.856 261.008 179.767 259.761 180.618C265.046 183.879 273.126 181.235 278.786 179.677C294.863 174.186 309.414 163.545 318.804 149.34L318.3 149.296C311.551 153.588 304.208 156.804 296.714 159.561C296.217 159.606 292.632 161.298 293.376 159.936C294.218 158.994 295.078 158.068 295.954 157.157C297.374 156.849 308.844 139.776 303.229 145.031C292.984 155.493 280.793 163.679 268.502 171.49C267.271 172.129 265.985 173.334 264.542 173.132C262.468 172.521 260.7 171.362 259.062 169.961L259.565 168.672C274.155 152.714 287.28 134.57 306.724 124.237C313.01 120.741 319.066 116.844 324.854 112.571C325.71 111.955 326.515 111.955 327.432 112.526C330.34 114.32 333.55 115.457 336.805 116.449C338.399 116.925 339.993 117.345 341.614 117.777C342.42 118.001 342.464 118.13 341.939 118.83C339.993 121.458 338.024 124.064 336.106 126.709C335.099 128.109 334.16 129.577 333.22 131.046L333.198 131.567C350.59 114.998 371.102 101.886 392.811 91.6708C445.199 66.2316 517.523 63.9342 539.585 0C541.313 34.8696 515.885 64.6795 487.488 81.596C461.931 97.5767 431.084 102.48 406.093 119.575C395.691 126.641 384.948 135.31 379.463 146.712C391.676 137.87 406.673 140.521 422.001 140C443.956 139.036 409.797 146.628 429.001 157.157C399.949 154.395 426.13 148.971 401.68 165.932C400.808 166.588 399.913 167.053 398.756 166.744C396.676 166.302 394.577 165.957 392.464 165.713C387.225 165.097 381.632 164.486 376.56 166.128C402.95 168.145 431.437 183.992 438.142 211.241C423.334 196.095 399.779 185.392 378.529 184.557C377.304 184.255 363.698 185.981 365.885 187.819C379.686 199.922 386.676 218.553 387.487 236.652C387.353 237.223 388.03 241.162 386.984 240.574C369.246 224.941 345.658 217.085 322.215 216.866C315.269 216.995 307.58 217.415 301.093 219.797C317.517 220.217 335.234 225.445 346.267 237.879C345.568 238.12 344.757 237.375 344.058 237.179C314.587 222.907 274.306 228.314 254.823 256.353C253.363 257.928 254.957 259.48 255.74 260.97C266.645 277.058 284.618 286.297 300.785 295.795C282.521 293.408 265.09 284.364 250.327 273.533C257.317 288.219 269.217 299.975 280.844 311.137C252.139 301.88 229.613 275.702 221.728 246.676C221.488 245.427 221.661 245.231 222.863 245.275C225.984 245.516 229.088 245.824 232.214 245.32C262.4 240.266 259.319 201.961 322.998 199.765C312.333 194.974 299.315 195.697 288.046 198.459C270.067 202.813 255.735 215.18 241.67 226.538C238.415 229.227 234.26 230.107 230.2 230.763C229.652 230.875 229.524 231.177 229.87 231.598C232.163 234.22 234.719 236.585 237.934 238.008C239.92 239.498 229.658 240.613 228.909 240.26C224.39 240.109 220.017 238.579 215.521 238.187C205.561 237.795 203.923 251.187 204.006 258.651C196.647 250.486 192.8 239.341 190.484 228.617C188.65 217.763 183.494 196.706 197.212 191.976L197.217 191.937ZM222.075 194.347C222.645 194.279 223.909 193.865 223.848 194.828C223.691 196.095 223.456 197.367 222.494 198.286C221.532 199.205 220.571 200.124 219.519 200.93C217.4 202.555 215.213 204.068 213.295 205.923C211.349 206.887 208.531 216.278 211.808 212.513C219.105 203.323 232.957 205.357 231.14 190.032H231.162C230.838 185.701 232.734 183.812 227.253 185.964C217.243 189.965 202.418 195.462 198.526 206.276C207.641 198.067 209.515 196.75 222.053 194.341L222.075 194.347Z" fill="#FF4C4B"/>
<path d="M394.322 78.1831C390.457 81.4443 386.52 84.6382 383.311 88.6222C382.46 89.6756 381.387 90.4825 380.212 91.0988C373.261 94.6009 366.232 97.9293 359.611 102.065C353.907 105.371 348.471 109.371 342.42 111.983C341.044 111.87 328.216 107.337 330.402 105.651C348.84 85.2097 372.523 70.5906 396.659 57.9102C417.367 46.7035 441.313 36.7071 451.754 13.9407C452.498 12.8481 453.873 8.84169 454.857 8.56152C454.332 43.2911 416.841 58.2408 394.322 78.1831ZM318.15 102.02C316.053 102.261 313.933 102.524 311.836 102.804C304.365 103.572 297.442 106.486 290.452 108.957L289.361 109.069C301.463 90.023 320.269 74.6362 337.331 59.6641C350.35 49.0289 363.218 37.7774 372.394 23.685L372.562 24.447C366.232 55.5288 335.407 73.8069 320.269 100.4C319.788 101.213 319.218 101.981 318.172 102.025L318.15 102.02Z" fill="#FF4C4B"/>
<path fill-rule="evenodd" clip-rule="evenodd" d="M522.185 298.92C520.472 273.953 515.063 250.591 505.959 228.836C494.989 201.795 479.753 178.652 460.251 159.408C440.749 139.919 417.59 124.693 390.774 113.731C390.129 113.467 389.482 113.207 388.834 112.949L310.5 172L344.303 198.059C347.555 199.054 350.734 200.178 353.842 201.43C369.2 207.276 382.364 215.681 393.334 226.643C400.166 233.319 406.006 240.893 410.852 249.364L424 259.5L437 386.502L522.185 298.92Z" fill="#FF4C4B"/>
</svg>
